<svg width="1440" height="550" viewBox="0 0 1440 550" xmlns="http://www.w3.org/2000/svg"><title>Visualiser asset</title><g fill="none" fill-rule="evenodd"><path d="M-147.205 248.233c-59.243-31.336-69.13-128.704-22.066-217.474 47.055-88.77 133.23-135.328 192.473-103.992C82.452-41.897 92.33 55.471 45.275 144.241c-47.056 88.77-133.237 135.328-192.48 103.992" fill="#0F4BEC"/><path d="M-242.962 367.5c-2.036-66.759 77.783-123.339 178.278-126.372 100.495-3.04 183.61 48.611 185.646 115.371 2.03 66.753-77.79 123.333-178.278 126.373-100.495 3.04-183.61-48.611-185.646-115.371M110.433 697.55C88.529 760.735-5.98 785.287-100.664 752.404c-94.678-32.889-153.673-110.772-131.769-173.958 21.904-63.18 116.413-87.738 211.09-54.85 94.685 32.883 153.68 110.766 131.776 173.952M415.74 72.08c5.332 66.624-71.714 127.088-172.088 135.049-100.367 7.967-186.059-39.586-191.391-106.21-5.333-66.623 71.713-127.087 172.08-135.048C324.715-42.096 410.407 5.457 415.74 72.081" fill="#0F4BEC"/><path d="M93.561 480.528c-42.373-51.867-13.626-145.41 64.215-208.935 77.835-63.533 175.287-72.988 217.66-21.121 42.38 51.867 13.626 145.409-64.209 208.941-77.841 63.526-175.293 72.982-217.666 21.115" fill="#0F4BEC"/><path d="M95.037 522.393c43.693-50.52 141.11-38.82 217.579 26.133 76.469 64.952 103.043 158.563 59.35 209.076-43.701 50.526-141.112 38.826-217.587-26.126C77.91 666.523 51.343 572.912 95.037 522.393" fill="#0F4BEC"/><path d="M622.633 242.986c-57.48 34.338-146-7.445-197.715-93.316-51.709-85.878-47.034-183.325 10.453-217.656 57.48-34.338 145.999 7.445 197.708 93.316 51.715 85.871 47.033 183.319-10.446 217.656" fill="#FF2305"/><path d="M353.323 310.632c18.785-63.95 111.989-93.012 208.187-64.918 96.191 28.094 158.947 102.704 140.169 166.654-18.785 63.95-111.988 93.012-208.187 64.918-96.198-28.094-158.954-102.704-140.169-166.654" fill="#0F4BEC"/><path d="M450.137 803.626c-59.826-29.152-73.016-125.82-29.46-215.911 43.556-90.091 127.366-139.493 187.192-110.341 59.82 29.152 73.01 125.82 29.454 215.911-43.556 90.091-127.36 139.493-187.186 110.341m446.488-550.703c-61.015 26.96-143.214-25.477-183.604-117.115-40.383-91.638-23.662-187.771 37.36-214.731 61.009-26.96 143.215 25.477 183.598 117.115 40.382 91.631 23.661 187.771-37.354 214.731" fill="#0F4BEC"/><path d="M750.925 529.065c-61.216-26.694-78.346-122.682-38.26-214.393 40.08-91.719 122.202-144.426 183.41-117.739 61.216 26.694 78.346 122.681 38.26 214.393-40.08 91.718-122.195 144.432-183.41 117.739" fill="#FF2305"/><path d="M899.05 804.154c-60.541 28.237-144.115-22.145-186.67-112.531-42.55-90.38-27.973-186.543 32.568-214.78 60.54-28.23 144.12 22.152 186.67 112.525 42.556 90.386 27.972 186.549-32.569 214.786m38.745-742.7c9.242-65.649 96.744-107.65 195.44-93.82 98.701 13.831 171.214 78.263 161.972 143.912-9.235 65.649-96.737 107.65-195.44 93.82-98.701-13.831-171.214-78.263-161.972-143.912" fill="#0F4BEC"/><path d="M958.797 279.704c31.382-59.205 128.774-69.014 217.532-21.904 88.752 47.103 135.264 133.287 103.868 192.492-31.382 59.213-128.774 69.015-217.525 21.911-88.752-47.11-135.257-133.293-103.875-192.499" fill="#FF2305"/><path d="M1295.669 597.2c15.81 64.844-50.475 136.571-148.046 160.207-97.577 23.642-189.492-9.767-205.29-74.61-15.818-64.844 50.468-136.571 148.039-160.206 97.584-23.635 189.485 9.766 205.297 74.61m181.643-681.042c62.53 23.267 85.1 118.615 50.404 212.97-34.69 94.346-113.5 151.975-176.03 128.715-62.53-23.267-85.093-118.616-50.41-212.97 34.698-94.353 113.506-151.982 176.036-128.715" fill="#0F4BEC"/><path d="M1341.474 195.492c61.61-25.84 143.136 27.768 182.083 119.726 38.954 91.959 20.584 187.45-41.033 213.29-61.61 25.84-143.135-27.768-182.083-119.726-38.954-91.959-20.577-187.45 41.033-213.29" fill="#0F4BEC"/><path d="M1326.943 481.064c58.87-31.798 145.117 14.26 192.65 102.864 47.527 88.603 38.33 186.206-20.527 218.01-58.877 31.792-145.124-14.26-192.65-102.863-47.534-88.617-38.35-186.213 20.527-218.011" fill="#0F4BEC"/></g></svg>